<svg width="25" height="15" viewBox="0 0 25 15" fill="none" xmlns="http://www.w3.org/2000/svg">
<path d="M20.0938 6.31696C20.1188 4.50936 17.5531 2.85239 14.375 2.623C14.3115 2.61863 14.2427 2.61175 14.1698 2.60425C14.01 2.5859 13.848 2.57545 13.6854 2.573C13.0333 2.573 12.8594 2.84801 12.8136 3.01115C12.7688 3.17053 12.8115 3.30491 12.9396 3.40929C13.1552 3.58493 13.5354 3.61618 13.8406 3.64118C13.9292 3.64868 14.0136 3.65556 14.0844 3.66493C16.9406 4.04808 17.9021 4.64999 18.3719 6.34946C18.3833 6.39071 18.3886 6.44196 18.3948 6.49634C18.4156 6.69948 18.4573 7.122 19.2146 7.122C19.2771 7.122 19.3458 7.11887 19.4167 7.11262C20.1208 7.04825 20.099 6.66197 20.0886 6.47634C20.0854 6.42384 20.0823 6.37446 20.0906 6.34133C20.0923 6.33304 20.093 6.32468 20.0927 6.31633L20.0938 6.31696Z" fill="white"/>
<path d="M13.5 1.96C13.5854 1.96375 13.6646 1.9675 13.7313 1.97312C18.4219 2.40625 20.5792 3.73937 21.1761 6.57562C21.1865 6.62375 21.1886 6.6825 21.1896 6.74438C21.1959 6.96625 21.2084 7.4275 22.0334 7.43688H22.0584C22.3177 7.43688 22.5229 7.39 22.6709 7.2975C22.9271 7.13687 22.9104 6.8975 22.8948 6.705C22.8917 6.6575 22.8886 6.61312 22.8886 6.57375C22.949 3.67375 18.7636 1.04313 13.9344 0.945625C13.9136 0.945625 13.8948 0.945625 13.8761 0.9475C13.8571 0.948939 13.8379 0.949565 13.8188 0.949375C13.7698 0.949375 13.7115 0.946875 13.6479 0.944375C13.5729 0.94125 13.4865 0.9375 13.3979 0.9375C12.6292 0.9375 12.4834 1.26563 12.4646 1.46125C12.4219 1.91312 13.15 1.945 13.5 1.96V1.96ZM20.95 10.2412C20.8494 10.1953 20.7497 10.1487 20.6511 10.1012C20.1386 9.85375 19.5938 9.62625 19.0677 9.40562L18.7396 9.26813C18.0646 8.98375 17.4584 8.84562 16.8854 8.84562C16.1125 8.84562 15.4396 9.10187 14.8834 9.60625C14.6375 9.83 14.3386 9.93875 13.9709 9.93875C13.7155 9.93339 13.4648 9.89569 13.2354 9.82813C11.0584 9.23563 9.50211 8.32688 8.61253 7.1275C8.18232 6.5475 8.3219 6.16875 9.07815 5.86C9.50836 5.685 10.3073 5.35938 10.2521 4.735C10.1875 4.02688 7.58232 1.895 6.4844 1.65312C6.01505 1.5504 5.50057 1.54952 5.03024 1.65063C3.76878 1.905 2.86461 2.3525 2.41149 2.94313C1.97399 3.51438 1.99482 4.185 2.46774 4.8825C3.83753 6.89937 5.76253 8.65813 8.19065 10.1094C10.5667 11.53 13.4875 12.6931 16.8709 13.5675C17.1761 13.6463 17.4959 13.6894 17.7302 13.7206C17.8094 13.7312 17.8782 13.7406 17.9282 13.7487C17.9557 13.7532 17.984 13.7555 18.0125 13.7556H18.0396C19.6313 13.7556 21.5427 12.8831 22.1292 11.8887C22.6438 11.0175 21.7042 10.5869 20.95 10.2412V10.2412ZM14.2042 4.26437C13.9323 4.26812 13.3646 4.27687 13.1657 4.62312C13.0719 4.78562 13.0834 4.92562 13.199 5.04125C13.3677 5.21 13.6917 5.2625 13.9854 5.29125C15.0532 5.39375 15.6021 5.7475 15.7115 6.40562C15.7625 6.71187 16.1073 6.92625 16.5479 6.92625C16.5814 6.92622 16.6148 6.92497 16.6479 6.9225C17.1792 6.885 17.4365 6.65062 17.4136 6.22625C17.4219 5.78375 17.0365 5.28125 16.3792 4.88125C15.7209 4.48 14.9271 4.25375 14.2042 4.26437V4.26437Z" fill="white"/>
</svg>
