<svg width="25" height="15" viewBox="0 0 25 15" fill="none" xmlns="http://www.w3.org/2000/svg">
<path d="M24.4343 1.03122C24.153 1.92278 23.7738 2.69882 23.2987 3.40346L23.3185 3.37195C22.8517 4.15605 22.2943 5.06196 21.6463 6.08968C21.0907 6.90108 20.7965 7.32113 20.7639 7.34983C20.6201 7.5315 20.5201 7.75413 20.4857 7.99881L20.4847 8.00616C20.5128 8.22879 20.6149 8.42306 20.7639 8.56798L21.1806 9.03633C23.4102 11.3459 24.6642 12.9379 24.9427 13.8123C24.9792 13.9089 25 14.0202 25 14.1368C25 14.3405 24.9354 14.5285 24.826 14.6829L24.8281 14.6797C24.6447 14.8698 24.3884 14.9874 24.1051 14.9874C24.0738 14.9874 24.0415 14.9863 24.0113 14.9832H24.0155H21.2744C21.2744 14.9832 21.2713 14.9832 21.2692 14.9832C20.9181 14.9832 20.5951 14.8593 20.3419 14.6535L20.3451 14.6556C19.9762 14.35 19.6481 14.0192 19.3543 13.66L19.3449 13.6474C18.8649 13.1007 18.4392 12.6404 18.0676 12.2665C16.8299 11.0806 15.9165 10.4876 15.3276 10.4876C15.3057 10.4855 15.2807 10.4845 15.2546 10.4845C15.0827 10.4845 14.9223 10.538 14.79 10.6294L14.7931 10.6273C14.6847 10.7638 14.6191 10.9402 14.6191 11.1303C14.6191 11.1681 14.6212 11.2038 14.6264 11.2405V11.2363C14.5983 11.5661 14.5816 11.9494 14.5816 12.3369C14.5816 12.4618 14.5837 12.5858 14.5868 12.7097V12.6918V13.9089C14.5972 13.9583 14.6035 14.015 14.6035 14.0727C14.6035 14.3269 14.4889 14.5537 14.3097 14.7039L14.3086 14.7049C13.9054 14.8908 13.4345 15 12.9376 15C12.8313 15 12.7271 14.9947 12.624 14.9853L12.6375 14.9863C10.9977 14.9548 9.47658 14.4707 8.18366 13.6548L8.22012 13.6758C6.6459 12.7118 5.34152 11.4569 4.3476 9.9741L4.31947 9.92999C3.37556 8.66774 2.49521 7.24167 1.74508 5.73789L1.67215 5.57617C1.23354 4.73397 0.779297 3.69854 0.387565 2.63372L0.325054 2.43944C0.165653 1.96059 0.0500083 1.40402 0.00208368 0.827499L0 0.801246C0 0.270582 0.309774 0.00525075 0.929322 0.00525075H3.66936C3.69437 0.0031505 3.72354 0.0021001 3.75375 0.0021001C4.01213 0.0021001 4.25071 0.091361 4.43928 0.241529L4.4372 0.239429C4.64557 0.469406 4.79976 0.75189 4.87581 1.06693L4.87894 1.07953C5.38319 2.51505 5.91765 3.7206 6.53234 4.87573L6.46254 4.73187C6.9647 5.75049 7.52 6.62734 8.15344 7.43699L8.12948 7.40444C8.68513 8.09192 9.11853 8.43566 9.4297 8.43566C9.43907 8.43671 9.45053 8.43671 9.46304 8.43671C9.61723 8.43671 9.75162 8.3527 9.82455 8.22669L9.8256 8.22459C9.90269 8.02506 9.94749 7.79298 9.94749 7.55146C9.94749 7.5 9.94541 7.44854 9.94124 7.39814V7.40444V3.331C9.91936 2.85109 9.80268 2.40269 9.60785 2.00049L9.61618 2.02044C9.487 1.74321 9.33176 1.50378 9.14736 1.2906L9.15048 1.29481C8.97962 1.12258 8.86294 0.896807 8.82647 0.644777L8.82543 0.638476C8.82543 0.459955 8.90669 0.299286 9.0338 0.194273L9.03484 0.193223C9.1609 0.0766592 9.32968 0.0063008 9.51409 0.0063008H9.52242H13.8419C13.8648 0.00315042 13.8909 0.0021001 13.9179 0.0021001C14.1211 0.0021001 14.3034 0.0945115 14.4243 0.239429L14.4253 0.240479C14.5326 0.437903 14.5962 0.674181 14.5962 0.924111C14.5962 0.964016 14.5941 1.00287 14.591 1.04173V1.03647V6.46878C14.5889 6.49398 14.5878 6.52338 14.5878 6.55279C14.5878 6.74601 14.641 6.92768 14.7327 7.08205L14.7306 7.07785C14.8066 7.19126 14.9337 7.26477 15.0775 7.26477H15.0786C15.2619 7.25217 15.4286 7.19126 15.5693 7.09465L15.5661 7.09675C15.8495 6.90038 16.0933 6.6767 16.3048 6.42362L16.309 6.41837C16.9414 5.69798 17.5248 4.90199 18.0332 4.05559L18.0738 3.98208C18.4322 3.38351 18.8198 2.64632 19.1709 1.88918L19.2355 1.73481L19.7002 0.798095C19.8616 0.329739 20.295 0 20.8045 0C20.8243 0 20.8441 -7.6252e-08 20.8639 0.00105005H20.8608H23.6019C24.3423 0.00105005 24.6201 0.344441 24.4353 1.03122H24.4343Z" fill="white"/>
</svg>
