<svg width="25" height="15" viewBox="0 0 25 15" fill="none" xmlns="http://www.w3.org/2000/svg">
<path d="M24.0256 1.28764C23.1231 0.373064 21.457 0 18.2751 0H6.72468C3.46992 0 1.77556 0.397129 0.876532 1.37084C0 2.32021 0 3.71903 0 5.65503V9.34504C0 13.0957 1.04 15 6.72468 15H18.2752C21.0345 15 22.5635 14.6708 23.5527 13.8637C24.5672 13.036 25 11.6846 25 9.34504V5.65503C25 3.61335 24.9322 2.20628 24.0256 1.28764ZM16.0501 8.00947L10.8051 10.3465C10.6878 10.3988 10.5596 10.4247 10.4315 10.4247C10.2865 10.4247 10.1419 10.3914 10.0137 10.3253C9.77242 10.2006 9.62508 9.97765 9.62508 9.73715V5.07804C9.62508 4.83794 9.77202 4.61518 10.0128 4.49046C10.2537 4.36573 10.5533 4.35721 10.8032 4.46791L16.0482 6.7899C16.3151 6.90802 16.4827 7.14289 16.4831 7.39914C16.4834 7.65559 16.3165 7.8908 16.0501 8.00947Z" fill="white"/>
</svg>
